<svg width="33" height="33" viewBox="0 0 33 33" fill="none" xmlns="http://www.w3.org/2000/svg">
<path d="M28.6024 23.0784C27.9416 24.544 27.6232 25.1984 26.772 26.4944C25.5848 28.3024 23.908 30.5552 21.8328 30.5744C19.9896 30.5904 19.516 29.3744 17.012 29.3888C14.5096 29.4016 13.988 30.5968 12.1432 30.5792C10.068 30.56 8.47925 28.5264 7.29045 26.7168C3.96725 21.6608 3.62005 15.7248 5.66965 12.568C7.12565 10.3264 9.42485 9.01439 11.5848 9.01439C13.7848 9.01439 15.1688 10.2208 16.9864 10.2208C18.7512 10.2208 19.8264 9.01119 22.3704 9.01119C24.2904 9.01119 26.3288 10.0592 27.78 11.8672C23.0248 14.4736 23.796 21.264 28.6024 23.0784ZM20.4408 6.99199C21.364 5.80479 22.0664 4.13119 21.812 2.41919C20.3016 2.52319 18.5368 3.48319 17.5048 4.73599C16.5704 5.87199 15.7976 7.55679 16.0968 9.19519C17.7448 9.24479 19.4504 8.26079 20.4408 6.99199Z" fill="black"/>
</svg>
