<svg width="61" height="61" viewBox="0 0 61 61" fill="none" xmlns="http://www.w3.org/2000/svg">
<path d="M1.29102 47.474L3.91797 44.847C3.98633 44.7787 4.05957 44.7152 4.13281 44.6517L2.24805 42.767C2.21875 42.7377 2.19434 42.7084 2.16992 42.6791C1.70117 42.1664 1.4668 41.517 1.4668 40.8724C1.4668 40.1888 1.73047 39.5052 2.25293 38.9828L4.87988 36.3558C4.94824 36.2875 5.02148 36.224 5.09473 36.1605L3.20996 34.2758C2.6875 33.7533 2.42871 33.0648 2.42871 32.3812C2.42871 31.6976 2.69238 31.014 3.20996 30.4916L5.83691 27.8646C6.35938 27.3422 7.04785 27.0834 7.73145 27.0834C8.41992 27.0834 9.10352 27.3422 9.62598 27.8646L32.6777 50.9164C33.2002 51.4388 33.459 52.1273 33.459 52.8109C33.459 53.4994 33.2002 54.183 32.6777 54.7054L30.0508 57.3324C30.0215 57.3617 29.9922 57.3861 29.9629 57.4105C29.4502 57.8793 28.8008 58.1136 28.1562 58.1136C27.4727 58.1136 26.7891 57.85 26.2666 57.3324L24.6699 55.7357C24.6113 55.809 24.5479 55.8822 24.4795 55.9506L21.8525 58.5775C21.8232 58.6068 21.7939 58.6312 21.7646 58.6556C21.2568 59.1195 20.6074 59.3539 19.958 59.3539C19.2695 59.3539 18.5859 59.0951 18.0684 58.5726L15.8906 56.3949C15.832 56.4681 15.7686 56.5414 15.6953 56.6097L13.0684 59.2367C12.5459 59.7592 11.8574 60.0179 11.1738 60.0179C10.4902 60.0179 9.80176 59.7592 9.2793 59.2367L1.29102 51.2679C0.768555 50.7455 0.504883 50.057 0.504883 49.3734C0.504883 48.6849 0.768555 48.0013 1.29102 47.474ZM32.6582 4.40759L30.0312 7.03455L30.0068 7.05896C29.9678 7.11267 29.9482 7.17615 29.9482 7.23962C29.9482 7.31287 29.9775 7.39099 30.0312 7.4447L53.083 30.4965C53.1367 30.5502 53.21 30.5795 53.2881 30.5795C53.3613 30.5795 53.4395 30.5502 53.4932 30.4965L56.1201 27.8695L56.1445 27.8451C56.1836 27.7963 56.2031 27.7279 56.2031 27.6644C56.2031 27.5863 56.1787 27.5131 56.125 27.4594L52.6436 23.9779L36.8379 8.18201L33.0684 4.41248C33.0146 4.35876 32.9414 4.32947 32.8633 4.32947C32.7852 4.32458 32.7119 4.35388 32.6582 4.40759ZM35.4023 23.1234C36.0566 22.4691 37.1211 22.4691 37.7803 23.1234C38.4346 23.7777 38.4346 24.8422 37.7803 25.5013L26.2568 37.015C25.6025 37.6693 24.5381 37.6693 23.8789 37.015C23.2246 36.3607 23.2246 35.2963 23.8789 34.6371L35.4023 23.1234ZM49.6504 2.49841L47.0234 5.12537C46.9648 5.18396 46.9355 5.2572 46.9355 5.33044C46.9355 5.39392 46.9551 5.45251 46.9941 5.50623L47.0234 5.53552L54.9922 13.5043L55.0166 13.5287C55.0654 13.5677 55.1289 13.5824 55.1924 13.5824C55.2656 13.5824 55.3438 13.5531 55.3975 13.4994L58.0244 10.8724C58.083 10.8138 58.1123 10.7406 58.1123 10.6674C58.1123 10.5941 58.083 10.516 58.0293 10.4623L50.0605 2.49841C50.0068 2.4447 49.9336 2.41541 49.8555 2.41541C49.7773 2.41541 49.7041 2.4447 49.6504 2.49841ZM45.334 3.43103L47.9609 0.804077C48.4834 0.281616 49.1719 0.0228271 49.8555 0.0228271C50.5391 0.0228271 51.2275 0.281616 51.75 0.804077L59.7188 8.77283C60.2363 9.29041 60.5 9.97888 60.4951 10.6625C60.4951 11.351 60.2363 12.0394 59.7188 12.557L57.0918 15.184C57.0234 15.2523 56.9502 15.3158 56.877 15.3793L59.0547 17.557C59.5771 18.0795 59.8359 18.7679 59.8359 19.4515C59.8359 20.14 59.5723 20.8236 59.0547 21.3461L56.4277 23.973C56.3594 24.0414 56.2861 24.1049 56.2129 24.1635L57.8096 25.7601C58.332 26.2826 58.5908 26.9662 58.5908 27.6498C58.5908 28.2992 58.3564 28.9486 57.8877 29.4564C57.8633 29.4857 57.8389 29.515 57.8096 29.5443L55.1826 32.1713C54.6602 32.6937 53.9717 32.9525 53.2881 32.9525C52.5996 32.9525 51.916 32.6888 51.3936 32.1713L28.3418 9.13416C27.8193 8.61169 27.5557 7.92322 27.5557 7.23962C27.5557 6.59021 27.79 5.9408 28.2588 5.43298C28.2832 5.40369 28.3076 5.37439 28.3369 5.34509L30.9639 2.71814C31.4863 2.19568 32.1699 1.93689 32.8535 1.93689C33.542 1.93689 34.2256 2.20056 34.748 2.71814L36.6328 4.60291C36.6914 4.52966 36.7549 4.45642 36.8281 4.38806L39.4551 1.76111C39.9775 1.23865 40.666 0.974976 41.3496 0.974976C42.0381 0.974976 42.7217 1.23865 43.2441 1.76111L45.1289 3.64587C45.2021 3.57263 45.2656 3.49939 45.334 3.43103ZM41.1543 3.45544L38.5273 6.0824C38.4736 6.13611 38.4443 6.20935 38.4443 6.28748C38.4443 6.36072 38.4688 6.43396 38.5225 6.48767L38.5273 6.49255L54.3281 22.2933C54.3818 22.347 54.4551 22.3763 54.5332 22.3763C54.6113 22.3763 54.6846 22.3519 54.7383 22.2982L57.3652 19.6713C57.4189 19.6176 57.4482 19.5443 57.4482 19.4662C57.4482 19.3929 57.4189 19.3148 57.3652 19.2611L53.3076 15.2035L41.5645 3.45544C41.5107 3.40173 41.4326 3.37244 41.3594 3.37244C41.2812 3.37244 41.208 3.39685 41.1543 3.45544ZM8.66406 36.3558L24.4648 52.1566L27.9365 55.6283C27.9902 55.682 28.0684 55.7064 28.1416 55.7064C28.2051 55.7064 28.2686 55.6869 28.3223 55.6478L28.3467 55.6234L30.9736 52.9965C31.0273 52.9427 31.0566 52.8695 31.0566 52.7914C31.0566 52.7181 31.0273 52.64 30.9736 52.5863L7.92676 29.5492C7.87305 29.4955 7.7998 29.4662 7.72168 29.4662C7.64844 29.4662 7.57031 29.4955 7.5166 29.5492L4.88965 32.1761C4.83594 32.2299 4.81152 32.308 4.81152 32.3812C4.81152 32.4545 4.84082 32.5326 4.89453 32.5863L8.66406 36.3558ZM22.7998 53.8754L22.7754 53.851L6.96973 38.0453L6.94043 38.016C6.88672 37.9769 6.82812 37.9574 6.76465 37.9574C6.69141 37.9574 6.61816 37.9867 6.55957 38.0453L3.93262 40.6722C3.87891 40.726 3.85449 40.8041 3.85449 40.8773C3.85449 40.9408 3.87402 41.0043 3.91309 41.058L3.9375 41.0824L7.70703 44.8519L15.6758 52.8207L19.7383 56.8832C19.7969 56.9418 19.8701 56.9662 19.9434 56.9662C20.0068 56.9662 20.0703 56.9467 20.124 56.9076L20.1484 56.8832L22.7754 54.2562C22.8291 54.2025 22.8535 54.1244 22.8535 54.0511C22.8535 53.9877 22.834 53.9242 22.7998 53.8754ZM5.60742 46.5414L2.98047 49.1683C2.92676 49.222 2.89746 49.2953 2.89746 49.3734C2.89746 49.4515 2.92676 49.5248 2.98047 49.5785L10.9492 57.5472C11.0029 57.601 11.0762 57.6302 11.1543 57.6302C11.2275 57.6302 11.3057 57.601 11.3594 57.5472L13.9863 54.9203C14.04 54.8666 14.0693 54.7933 14.0693 54.7152C14.0693 54.6371 14.04 54.5638 13.9863 54.5101L6.0127 46.5414L6.00781 46.5365C5.9541 46.4828 5.88086 46.4584 5.80762 46.4584C5.73438 46.4584 5.66113 46.4877 5.60742 46.5414Z" fill="#EBF1FF"/>
</svg>
