<svg width="61" height="61" viewBox="0 0 61 61" fill="none" xmlns="http://www.w3.org/2000/svg">
<path d="M58.6394 19.6051C58.1171 18.1913 57.488 16.8242 56.7654 15.5195C55.3973 13.0482 53.6939 10.7882 51.7111 8.80918C51.6627 8.76078 51.6227 8.71988 51.5743 8.67148H51.571C51.5148 8.6157 51.4612 8.56179 51.4017 8.50695L51.3976 8.50414C51.2278 8.3348 51.0521 8.16652 50.8753 8.00926C45.5293 3.05105 38.3596 0.0209351 30.4998 0.0209351C25.9355 0.0209351 21.6038 1.04304 17.7296 2.86883C17.4636 2.99433 17.1985 3.12359 16.9381 3.25672C14.0963 4.69918 11.515 6.57969 9.28801 8.80918C6.03102 12.0624 3.52074 16.0691 2.03129 20.5408C1.95641 20.7659 1.88246 20.9947 1.8132 21.2225L1.8043 21.2477C1.75684 21.402 1.71137 21.562 1.66672 21.7202C1.55609 22.0987 1.45508 22.4772 1.36297 22.8632C1.32664 22.9962 1.29699 23.1302 1.26711 23.266C0.765078 25.4366 0.5 27.6984 0.5 30.0207C0.5 38.2973 3.86117 45.8094 9.28801 51.2325C12.3419 54.285 16.0556 56.6853 20.1952 58.2031C20.324 58.2506 20.4556 58.298 20.589 58.3416C21.38 58.6207 22.1892 58.8652 23.01 59.0764C23.1532 59.1127 23.2992 59.1489 23.4457 59.1806C25.709 59.7302 28.0732 60.0203 30.4996 60.0203C38.7771 60.0203 46.2877 56.6601 51.7109 51.2323C52.7061 50.24 53.6281 49.1787 54.4718 48.0534C58.254 43.035 60.5 36.7831 60.5 30.0207C60.5 26.3611 59.842 22.8509 58.6394 19.6051ZM11.6081 48.9138C6.77094 44.0711 3.78301 37.4035 3.78301 30.0207C3.78301 28.6563 3.88496 27.3188 4.08207 26.0122C4.99215 26.6484 6.65223 27.5384 6.6732 27.5431C6.73543 27.5627 6.80703 27.5729 6.89363 27.5729C7.02805 27.5729 7.18941 27.5487 7.35629 27.5218C7.53254 27.4958 7.71207 27.4698 7.8548 27.4698C7.89945 27.4698 7.94176 27.4716 7.97527 27.4781C8.03703 27.506 8.13852 27.7404 8.19195 27.866C8.3027 28.119 8.41613 28.3811 8.64957 28.4956C8.86625 28.6053 9.335 28.6621 10.0218 28.7355C10.2493 28.7607 10.4818 28.7886 10.6012 28.808C10.6459 28.8898 10.7002 29.0899 10.7361 29.2295C10.8407 29.6219 10.9445 30.0228 11.2434 30.2014C11.4914 30.353 12.3 31.1221 12.7511 31.5751C12.8107 31.6327 12.8854 31.6625 12.9631 31.6625C13.0129 31.6625 13.0673 31.6504 13.112 31.6207C13.1478 31.6002 13.9354 31.1389 14.2104 30.9669C14.2675 30.9854 14.3689 31.0496 14.461 31.1287C14.4754 31.5611 14.5303 32.9916 14.533 33.2809C14.4823 33.4604 13.882 34.0843 13.2198 34.6442C13.1543 34.6991 13.1143 34.7763 13.112 34.859C13.1091 34.9408 13.0374 36.8298 13.112 37.5888C13.19 38.3579 14.4521 39.8609 14.7916 40.2515C14.9353 40.6413 15.3268 41.6783 15.4762 41.9006C15.6254 42.1246 17.1391 43.2603 18.1123 43.9793V48.4546C18.1123 48.956 18.3082 49.2833 18.4644 49.5493C18.5602 49.7074 18.6345 49.8321 18.6345 49.9455V53.0798C18.6345 53.4873 18.7531 53.8211 18.9177 54.1038C16.1927 52.7902 13.7267 51.0288 11.6081 48.9138ZM53.6343 18.9764C53.1112 18.6044 52.2908 18.4546 52.2908 18.4546L51.6932 18.3784C51.3951 17.7821 51.5444 16.4393 50.5 16.7368C49.4546 17.0362 46.0218 17.6323 45.2755 17.7821C44.53 17.9309 43.6339 19.1241 43.0373 20.0199C42.4398 20.9155 40.7983 23.7521 40.4997 24.1995C40.2016 24.6468 40.0518 27.4836 40.0518 28.2286C40.0518 28.9763 43.3364 32.1106 44.3803 32.2593C45.4252 32.4082 48.2603 31.6623 49.0073 31.5134C49.7537 31.3627 50.201 32.4082 50.7982 32.4082C51.3952 32.4082 52.1416 32.7066 51.5444 33.6042C50.9473 34.497 50.9473 34.9453 51.5444 35.5425C52.1416 36.1405 53.3353 38.3791 52.5889 40.1704C51.8425 41.9607 52.4407 42.8554 52.888 43.6023C52.9735 43.7455 53.0638 43.9445 53.1596 44.1788C52.0841 45.8939 50.8187 47.4823 49.3919 48.9137C44.5496 53.7491 37.882 56.7373 30.4998 56.7373C28.0337 56.7373 25.6495 56.4015 23.3834 55.7803C23.3928 55.743 23.4016 55.7013 23.408 55.6584C23.4457 55.3786 23.33 55.1702 23.2105 55.0232C23.3779 54.9432 23.5119 54.8149 23.6071 54.6437C23.7513 54.3814 23.775 54.0596 23.7513 53.8057L23.8964 53.8085C24.2605 53.8085 24.6791 53.775 25.0012 53.5453C25.529 53.1696 25.5389 52.3753 25.4397 51.8238C25.4783 51.8405 25.5178 51.8591 25.5536 51.8702C25.5946 51.887 25.6398 51.8907 25.6852 51.8907C26.1629 51.8907 26.6912 51.0322 26.8334 50.4639C26.8878 50.2556 27.0874 49.7943 27.2823 49.345C27.7385 48.2857 28.0128 47.6198 27.9598 47.2887C27.9677 47.0804 28.7863 46.4284 29.5139 46.2823C30.3771 46.1103 30.6843 45.7932 31.0099 44.7319C31.3205 43.7247 31.4731 42.0469 31.3926 41.3298C31.3689 41.0946 31.878 40.3783 32.2194 39.9041C32.7743 39.121 33.1122 38.6206 33.1122 38.2299C33.1122 37.3278 32.3534 36.7195 31.7832 36.3392C31.2164 35.9607 30.2221 35.8733 29.5623 35.8183C29.3777 35.8025 29.2162 35.7886 29.1413 35.7728C29.073 35.7588 28.9535 35.6287 28.8581 35.5282C28.6525 35.3068 28.3708 35.0055 27.9229 34.9488C27.8723 34.9422 27.8192 34.9403 27.7686 34.9403C27.4841 34.9403 27.2314 35.0296 26.9837 35.1161C26.7628 35.1962 26.5535 35.2725 26.3452 35.2725C26.2815 35.2725 26.2224 35.2651 26.1629 35.2501C26.0523 35.2269 26.0098 35.1962 26.0014 35.1962C26.0037 35.146 26.0996 34.9776 26.3348 34.8213C26.5623 34.6698 26.7775 34.335 26.5297 33.5759C26.3536 33.0291 26.0275 32.512 25.8973 32.3185C25.4286 31.6146 24.5743 31.6146 24.2939 31.6146C24.0371 31.6146 23.7861 31.6396 23.5289 31.6619L23.4731 31.6638C23.213 31.6638 23.0611 31.435 22.7653 30.9514C22.5978 30.6769 22.4096 30.37 22.1482 30.0539C21.5799 29.373 20.7867 29.2828 20.082 29.2828C19.989 29.2828 19.8997 29.2828 19.8127 29.2865C19.7384 29.2865 19.6663 29.2884 19.5984 29.2884C19.503 29.2884 19.4161 29.2865 19.3408 29.2763C19.0818 29.2437 18.6963 29.0466 18.3563 28.8718C17.9834 28.6802 17.6309 28.4978 17.3323 28.456L17.2579 28.4505C16.831 28.4505 16.3479 28.9462 15.6582 29.6977C15.4871 29.8837 15.2667 30.1245 15.15 30.2259C15.1268 30.1989 15.0964 30.1646 15.0732 30.1347C14.9477 29.9748 14.7771 29.7646 14.4752 29.6623C14.41 29.6409 14.3441 29.6288 14.2786 29.6288C14.0428 29.6288 13.867 29.7646 13.7139 29.8817C13.5777 29.984 13.4609 30.0706 13.32 30.0706C13.2372 30.0706 13.1414 30.0418 13.0307 29.9823C12.6192 29.7573 12.7558 28.895 12.8637 28.203C12.9148 27.885 12.9628 27.5854 12.9628 27.3334C12.9628 26.7605 12.6242 26.6982 12.482 26.6982C12.3444 26.6982 12.21 26.7458 12.0547 26.8071C11.8789 26.8703 11.6756 26.9456 11.4636 26.9456C11.3682 26.9456 11.2789 26.9298 11.1924 26.9001C11.0223 26.8443 10.9469 26.7848 10.9353 26.7494C10.8935 26.6349 11.1144 26.2982 11.2752 26.05C11.3497 25.9365 11.4277 25.8174 11.5021 25.6957C11.8133 25.1777 11.9746 24.7954 11.8095 24.5061C11.7076 24.3312 11.5207 24.2401 11.2515 24.2401C11.1478 24.2401 11.0312 24.2521 10.8935 24.2791C10.792 24.2976 10.6962 24.307 10.6009 24.307C10.4727 24.307 10.374 24.2893 10.2875 24.2744C10.2066 24.2615 10.1443 24.2493 10.0899 24.2493C9.67836 24.2493 9.62773 24.6584 9.60629 24.8353C9.52953 25.4565 9.15652 25.7728 8.50273 25.7728C8.45434 25.7728 8.40793 25.77 8.35672 25.7671C7.66098 25.7225 7.36484 25.2287 7.36484 24.1246C7.36484 23.6448 7.4402 23.5183 7.66344 23.1417C7.77406 22.9603 7.91164 22.7306 8.07863 22.3939C8.44836 21.6563 8.74133 21.5187 9.11422 21.3467C9.22438 21.2946 9.33828 21.2417 9.45512 21.1746C9.54441 21.1207 9.61883 21.0975 9.67227 21.0975C9.71176 21.0975 9.75277 21.1133 9.82484 21.1374C9.92387 21.1746 10.0573 21.222 10.2341 21.222C10.2847 21.222 10.3381 21.2203 10.3977 21.2118C10.9469 21.118 11.0632 20.7961 11.165 20.5125C11.1777 20.4827 11.1887 20.4511 11.2046 20.4111C11.2339 20.4213 11.2637 20.4287 11.2939 20.4343C11.5358 20.504 11.9389 20.6166 12.5894 20.6166C12.8042 20.6166 12.9596 20.6193 13.073 20.626C12.9922 21.0352 12.995 21.8239 13.8036 22.7456C14.0696 23.0469 14.303 23.1873 14.5412 23.1873C15.3062 23.1873 15.3709 21.8982 15.3709 20.4641C15.3709 19.5973 15.6996 19.3602 16.6725 18.6653L16.7357 18.6188C17.264 18.2441 17.578 17.7985 17.8816 17.368C18.2104 16.9039 18.52 16.4648 19.1027 16.1021C19.6495 15.7571 20.5029 15.3785 21.3269 15.0083C22.2788 14.5851 23.1768 14.1843 23.5986 13.8477C24.0822 13.4589 23.9864 12.8506 23.9083 12.3568C23.8068 11.7223 23.8367 11.5913 24.0907 11.5159C24.5088 11.3977 24.9566 11.3281 25.4313 11.2536C26.1112 11.1466 26.8162 11.036 27.5393 10.7635C28.2898 10.4837 28.4638 10.0828 28.4786 9.79344C28.5061 9.30429 28.0842 8.91265 27.715 8.72762C27.5536 8.64664 27.535 8.25043 27.5234 7.89886C27.5057 7.44969 27.4882 6.9875 27.1979 6.70097C27.0342 6.53363 26.8245 6.44984 26.5827 6.44984C26.2665 6.44984 25.9264 6.58929 25.5325 6.75582C25.2721 6.86269 24.9801 6.98176 24.6696 7.07105C24.6361 7.08043 24.6068 7.08687 24.5831 7.08687C24.4664 7.08687 24.383 6.84418 24.2793 6.50375C24.1198 6.00054 23.8845 5.24726 23.0578 5.24726C22.9652 5.24726 22.8634 5.2557 22.7564 5.27703C21.7026 5.48808 21.4548 6.61812 21.2762 7.44394C21.2129 7.74066 21.1148 8.19078 21.0279 8.25031C20.407 8.25031 20.2071 8.64652 20.0128 9.03148C19.89 9.27711 19.7505 9.55426 19.4784 9.82578C19.3114 9.99324 19.1956 10.0388 19.1622 10.0426C19.1116 9.99511 19.0343 9.63148 19.3593 8.98226C19.4969 8.7098 19.6518 8.31265 19.4608 7.98804C19.2366 7.60859 18.7061 7.58351 18.0936 7.56125C17.849 7.54918 17.5951 7.5398 17.3413 7.50734C16.8571 7.44687 16.7298 7.32406 16.7237 7.29804C16.7237 7.28597 16.7298 7.20219 16.8614 7.04047C20.8522 4.66789 25.514 3.30359 30.4996 3.30359C36.5449 3.30359 42.1108 5.30785 46.5886 8.69047C46.5188 8.97043 46.2924 9.37777 46.0961 9.72101C45.7981 10.2446 45.9474 10.5432 45.9474 10.5432C45.9474 10.5432 47.3657 10.319 47.6634 10.1703C47.7684 10.1183 47.8633 9.96383 47.9332 9.77691C48.0852 9.90523 48.234 10.0345 48.3795 10.1703C48.0247 10.492 47.6435 10.8296 47.5146 10.917C47.2913 11.0649 46.545 11.2899 46.246 11.4378C45.9474 11.5876 47.1411 12.1103 47.1411 12.3335C47.1411 12.5577 47.1411 13.6021 46.6933 13.6755C46.246 13.7509 44.157 13.7509 44.157 13.7509C44.157 13.7509 43.4846 16.1384 43.6339 16.3625C43.7832 16.5875 44.7533 17.1103 45.3507 17.0359C45.9474 16.9587 47.2912 16.29 47.2912 16.29L47.8875 14.947L49.0811 13.6755C49.0811 13.6755 49.9768 14.0484 50.2757 13.7509C50.5739 13.4532 51.1713 13.1557 51.1713 13.1557C51.1713 13.1557 51.7685 14.2735 52.1414 14.4234L52.2134 14.456L52.2153 14.4605C52.6464 15.054 53.0491 15.665 53.4245 16.2956L53.4282 16.3003V16.3031L53.4337 16.3162C53.4542 16.3599 53.4757 16.3989 53.5026 16.4241C54.1141 17.4602 54.661 18.5371 55.132 19.6523C54.6509 19.6209 54.0868 19.2982 53.6343 18.9764Z" fill="#EBF1FF"/>
</svg>
