<svg width="60" height="61" viewBox="0 0 60 61" fill="none" xmlns="http://www.w3.org/2000/svg">
<path d="M12.1875 31.8954H30.0937C30.5531 35.0716 33.2588 37.5204 36.5625 37.5204C39.8662 37.5204 42.5719 35.0716 43.0312 31.8954H47.8125C50.1056 31.8954 52.0106 30.2379 52.4137 28.0591C55.6313 27.6373 58.125 24.9148 58.125 21.5829C58.125 18.251 55.6313 15.5285 52.4137 15.1066C52.0106 12.9279 50.1056 11.2704 47.8125 11.2704H35.5312C35.0719 8.09414 32.3662 5.64539 29.0625 5.64539C25.7588 5.64539 23.0531 8.09414 22.5938 11.2704H18.6562C18.1969 8.09414 15.4913 5.64539 12.1875 5.64539C8.56313 5.64539 5.625 8.58351 5.625 12.2079C5.625 15.8323 8.56313 18.7704 12.1875 18.7704C15.4913 18.7704 18.1969 16.3216 18.6562 13.1454H22.5956C23.055 16.3216 25.7606 18.7704 29.0644 18.7704C32.3681 18.7704 35.0737 16.3216 35.5331 13.1454H47.8144C49.0744 13.1454 50.1319 13.9835 50.4881 15.1291C47.3775 15.6448 45 18.3279 45 21.5829C45 24.8379 47.3775 27.521 50.4863 28.0366C50.13 29.1823 49.0725 30.0204 47.8125 30.0204H43.0312C42.5719 26.8441 39.8662 24.3954 36.5625 24.3954C33.2588 24.3954 30.5531 26.8441 30.0937 30.0204H12.1875C9.89437 30.0204 7.98938 31.6779 7.58625 33.8566C4.36875 34.2785 1.875 37.001 1.875 40.3329C1.875 43.6648 4.36875 46.3873 7.58625 46.8091C7.98938 48.9879 9.89437 50.6454 12.1875 50.6454H16.9688C17.4281 53.8216 20.1338 56.2704 23.4375 56.2704C26.7412 56.2704 29.4469 53.8216 29.9062 50.6454H41.3456C41.805 53.8216 44.5106 56.2704 47.8144 56.2704C51.4387 56.2704 54.3769 53.3323 54.3769 49.7079C54.3769 46.0835 51.4369 43.1454 47.8125 43.1454C44.5088 43.1454 41.8031 45.5941 41.3438 48.7704H29.9062C29.4469 45.5941 26.7412 43.1454 23.4375 43.1454C20.1338 43.1454 17.4281 45.5941 16.9688 48.7704H12.1875C10.9275 48.7704 9.87 47.9323 9.51375 46.7866C12.6225 46.271 15 43.5879 15 40.3329C15 37.0779 12.6225 34.3948 9.51375 33.8791C9.87 32.7335 10.9275 31.8954 12.1875 31.8954ZM12.1875 15.0204C10.6369 15.0204 9.375 13.7585 9.375 12.2079C9.375 10.6573 10.6369 9.39539 12.1875 9.39539C13.7381 9.39539 15 10.6573 15 12.2079C15 13.7585 13.7381 15.0204 12.1875 15.0204ZM29.0625 15.0204C27.5119 15.0204 26.25 13.7585 26.25 12.2079C26.25 10.6573 27.5119 9.39539 29.0625 9.39539C30.6131 9.39539 31.875 10.6573 31.875 12.2079C31.875 13.7585 30.6131 15.0204 29.0625 15.0204ZM48.75 21.5829C48.75 20.0323 50.0119 18.7704 51.5625 18.7704C53.1131 18.7704 54.375 20.0323 54.375 21.5829C54.375 23.1335 53.1131 24.3954 51.5625 24.3954C50.0119 24.3954 48.75 23.1335 48.75 21.5829ZM36.5625 28.1454C38.1131 28.1454 39.375 29.4073 39.375 30.9579C39.375 32.5085 38.1131 33.7704 36.5625 33.7704C35.0119 33.7704 33.75 32.5085 33.75 30.9579C33.75 29.4073 35.0119 28.1454 36.5625 28.1454ZM47.8125 46.8954C49.3631 46.8954 50.625 48.1573 50.625 49.7079C50.625 51.2585 49.3631 52.5204 47.8125 52.5204C46.2619 52.5204 45 51.2585 45 49.7079C45 48.1573 46.2619 46.8954 47.8125 46.8954ZM23.4375 46.8954C24.9881 46.8954 26.25 48.1573 26.25 49.7079C26.25 51.2585 24.9881 52.5204 23.4375 52.5204C21.8869 52.5204 20.625 51.2585 20.625 49.7079C20.625 48.1573 21.8869 46.8954 23.4375 46.8954ZM11.25 40.3329C11.25 41.8835 9.98812 43.1454 8.4375 43.1454C6.88688 43.1454 5.625 41.8835 5.625 40.3329C5.625 38.7823 6.88688 37.5204 8.4375 37.5204C9.98812 37.5204 11.25 38.7823 11.25 40.3329Z" fill="#EBF1FF"/>
</svg>
