<svg width="33" height="33" viewBox="0 0 33 33" fill="none" xmlns="http://www.w3.org/2000/svg">
<g clip-path="url(#clip0_66_706)">
<path d="M18.4291 7.94106C18.4291 8.26856 18.4291 9.336 18.4291 10.8525H23.6431L23.0778 15.5004H18.4291C18.4291 22.6684 18.4291 32.2739 18.4291 32.2739H12.2588C12.2588 32.2739 12.2588 22.7956 12.2588 15.5004H9.04358V10.8525H12.2588C12.2588 9.00925 12.2588 7.69856 12.2588 7.33362C12.2588 5.59487 12.1278 4.76987 12.8666 3.4225C13.6058 2.07519 15.6908 0.29431 19.297 0.337185C22.904 0.381623 24.4245 0.728623 24.4245 0.728623L23.6431 5.68219C23.6431 5.68219 21.3398 5.074 20.2093 5.29075C19.0802 5.50756 18.4291 6.20306 18.4291 7.94106Z" fill="#ECEDEF"/>
</g>
<defs>
<clipPath id="clip0_66_706">
<rect width="32" height="32" fill="white" transform="translate(0.734009 0.305176)"/>
</clipPath>
</defs>
</svg>
