<svg width="33" height="33" viewBox="0 0 33 33" fill="none" xmlns="http://www.w3.org/2000/svg">
<path fill-rule="evenodd" clip-rule="evenodd" d="M16.734 24.3052C21.1523 24.3052 24.734 20.7234 24.734 16.3052C24.734 11.8869 21.1523 8.30518 16.734 8.30518C12.3157 8.30518 8.73401 11.8869 8.73401 16.3052C8.73401 20.7234 12.3157 24.3052 16.734 24.3052ZM16.734 21.6385C19.6795 21.6385 22.0673 19.2506 22.0673 16.3052C22.0673 13.3597 19.6795 10.9718 16.734 10.9718C13.7885 10.9718 11.4007 13.3597 11.4007 16.3052C11.4007 19.2506 13.7885 21.6385 16.734 21.6385Z" fill="#ECEDEF"/>
<path d="M24.734 6.97168C23.9976 6.97168 23.4007 7.56864 23.4007 8.30501C23.4007 9.04139 23.9976 9.63835 24.734 9.63835C25.4704 9.63835 26.0674 9.04139 26.0674 8.30501C26.0674 7.56864 25.4704 6.97168 24.734 6.97168Z" fill="#ECEDEF"/>
<path fill-rule="evenodd" clip-rule="evenodd" d="M2.93927 6.00675C2.06732 7.71805 2.06732 9.95826 2.06732 14.4387V18.172C2.06732 22.6524 2.06732 24.8927 2.93927 26.6039C3.70626 28.1092 4.93009 29.3331 6.4354 30.1C8.1467 30.972 10.3869 30.972 14.8673 30.972H18.6007C23.0811 30.972 25.3213 30.972 27.0325 30.1C28.5379 29.3331 29.7617 28.1092 30.5287 26.6039C31.4007 24.8927 31.4007 22.6524 31.4007 18.172V14.4387C31.4007 9.95826 31.4007 7.71805 30.5287 6.00675C29.7617 4.50145 28.5379 3.27761 27.0325 2.51062C25.3213 1.63867 23.0811 1.63867 18.6007 1.63867H14.8673C10.3869 1.63867 8.1467 1.63867 6.4354 2.51062C4.93009 3.27761 3.70626 4.50145 2.93927 6.00675ZM18.6007 4.30534H14.8673C12.5831 4.30534 11.0303 4.30742 9.83009 4.40547C8.66097 4.50099 8.06311 4.67413 7.64604 4.88663C6.64251 5.39797 5.82662 6.21386 5.31528 7.21739C5.10278 7.63446 4.92964 8.23233 4.83412 9.40144C4.73607 10.6017 4.73399 12.1545 4.73399 14.4387V18.172C4.73399 20.4563 4.73607 22.0089 4.83412 23.2092C4.92964 24.3784 5.10278 24.9763 5.31528 25.3933C5.82662 26.3968 6.64251 27.2127 7.64604 27.724C8.06311 27.9365 8.66097 28.1097 9.83009 28.2052C11.0303 28.3032 12.5831 28.3053 14.8673 28.3053H18.6007C20.8849 28.3053 22.4376 28.3032 23.6379 28.2052C24.8071 28.1097 25.4049 27.9365 25.822 27.724C26.8255 27.2127 27.6413 26.3968 28.1527 25.3933C28.3652 24.9763 28.5384 24.3784 28.6339 23.2092C28.7319 22.0089 28.734 20.4563 28.734 18.172V14.4387C28.734 12.1545 28.7319 10.6017 28.6339 9.40144C28.5384 8.23233 28.3652 7.63446 28.1527 7.21739C27.6413 6.21386 26.8255 5.39797 25.822 4.88663C25.4049 4.67413 24.8071 4.50099 23.6379 4.40547C22.4376 4.30742 20.8849 4.30534 18.6007 4.30534Z" fill="#ECEDEF"/>
</svg>
