<svg width="32" height="33" viewBox="0 0 32 33" fill="none" xmlns="http://www.w3.org/2000/svg">
<path d="M16 0.921875C25.0144 0.921875 32 7.52507 32 16.4419C32 25.3587 25.0128 31.9619 16 31.9619C14.4354 31.9659 12.8774 31.7593 11.368 31.3475C11.0845 31.2695 10.7828 31.2916 10.5136 31.4099L7.3376 32.8115C7.14581 32.8962 6.93613 32.9326 6.727 32.9173C6.51787 32.902 6.31569 32.8356 6.13824 32.7239C5.96079 32.6122 5.8135 32.4586 5.70933 32.2766C5.60515 32.0946 5.54728 31.8899 5.5408 31.6803L5.4544 28.8323C5.44843 28.659 5.40719 28.4887 5.33318 28.3319C5.25918 28.1751 5.15398 28.035 5.024 27.9203C1.912 25.1363 0 21.1075 0 16.4419C0 7.52507 6.9856 0.921875 16 0.921875ZM6.392 20.9811C5.9408 21.6963 6.8208 22.5027 7.4944 21.9907L12.5424 18.1603C12.709 18.0345 12.9121 17.9665 13.1208 17.9665C13.3295 17.9665 13.5326 18.0345 13.6992 18.1603L17.4368 20.9603C17.7021 21.1595 18.0058 21.3016 18.3287 21.3775C18.6517 21.4534 18.9868 21.4616 19.3131 21.4014C19.6394 21.3413 19.9496 21.2142 20.2243 21.0281C20.4989 20.842 20.732 20.601 20.9088 20.3203L25.608 12.8643C26.0592 12.1475 25.1792 11.3411 24.5056 11.8515L19.4576 15.6851C19.291 15.8108 19.0879 15.8789 18.8792 15.8789C18.6705 15.8789 18.4674 15.8108 18.3008 15.6851L14.5616 12.8851C14.2964 12.6861 13.9928 12.5443 13.67 12.4685C13.3472 12.3927 13.0122 12.3846 12.6862 12.4448C12.3601 12.5049 12.0501 12.6319 11.7755 12.8179C11.501 13.0038 11.268 13.2446 11.0912 13.5251L6.392 20.9811Z" fill="#ECEDEF"/>
</svg>
