<svg width="61" height="61" viewBox="0 0 61 61" fill="none" xmlns="http://www.w3.org/2000/svg">
<mask id="path-1-inside-1_66_123" fill="white">
<path d="M15.0161 29.0526C23.0203 29.0526 29.5323 22.5407 29.5323 14.5365C29.5323 6.53232 23.0203 0.0203857 15.0161 0.0203857C7.01194 0.0203857 0.5 6.53232 0.5 14.5365C0.5 22.5407 7.01194 29.0526 15.0161 29.0526ZM5.95903 23.2462H8.55452L9.60645 25.8775C8.23613 25.2204 7.00129 24.3301 5.95903 23.2462ZM17.9929 26.7465C17.0368 26.9797 16.0429 27.1172 15.0161 27.1172C13.9894 27.1172 12.9955 26.9797 12.0394 26.7465L10.31 22.4236L12.5968 19.3752H17.4355L19.7223 22.4236L17.9929 26.7465ZM12.2145 13.9772L15.0161 11.8752L17.8187 13.9772L17.1268 17.4397H12.9065L12.2145 13.9772ZM20.4248 25.8775L21.4777 23.2462H24.0732C23.031 24.3301 21.7961 25.2204 20.4248 25.8775ZM25.6003 21.3107H21.3065L18.9529 18.1733L19.731 14.283L23.7326 12.7655L27.5697 15.0678C27.4729 17.3594 26.7674 19.4933 25.6003 21.3107ZM26.0319 8.47264C26.75 9.77232 27.2329 11.2143 27.4535 12.7414L24.9306 11.2278L26.0319 8.47264ZM24.7206 6.5391L22.9371 10.9975L19.0419 12.4752L15.9839 10.1817V5.34297L19.4184 2.76684C21.501 3.54781 23.329 4.85329 24.7206 6.5391ZM15.0161 1.95587C15.7061 1.95587 16.3777 2.02651 17.0377 2.13393L15.0161 3.64942L12.9945 2.13393C13.6545 2.02651 14.3261 1.95587 15.0161 1.95587ZM10.6139 2.76684L14.0484 5.34297V10.1817L10.97 12.4907L7.1871 11.2297L5.31161 6.5391C6.70323 4.85329 8.53129 3.54781 10.6139 2.76684ZM4.00032 8.47361L5.14129 11.3265L2.49065 13.4468C2.64548 11.6565 3.17194 9.97167 4.00032 8.47361ZM2.51387 15.9068L6.21548 12.9455L10.3061 14.3091L11.0794 18.1733L8.72581 21.3107H4.43194C3.40806 19.7168 2.72871 17.882 2.51387 15.9068Z"/>
</mask>
<path d="M15.0161 29.0526C23.0203 29.0526 29.5323 22.5407 29.5323 14.5365C29.5323 6.53232 23.0203 0.0203857 15.0161 0.0203857C7.01194 0.0203857 0.5 6.53232 0.5 14.5365C0.5 22.5407 7.01194 29.0526 15.0161 29.0526ZM5.95903 23.2462H8.55452L9.60645 25.8775C8.23613 25.2204 7.00129 24.3301 5.95903 23.2462ZM17.9929 26.7465C17.0368 26.9797 16.0429 27.1172 15.0161 27.1172C13.9894 27.1172 12.9955 26.9797 12.0394 26.7465L10.31 22.4236L12.5968 19.3752H17.4355L19.7223 22.4236L17.9929 26.7465ZM12.2145 13.9772L15.0161 11.8752L17.8187 13.9772L17.1268 17.4397H12.9065L12.2145 13.9772ZM20.4248 25.8775L21.4777 23.2462H24.0732C23.031 24.3301 21.7961 25.2204 20.4248 25.8775ZM25.6003 21.3107H21.3065L18.9529 18.1733L19.731 14.283L23.7326 12.7655L27.5697 15.0678C27.4729 17.3594 26.7674 19.4933 25.6003 21.3107ZM26.0319 8.47264C26.75 9.77232 27.2329 11.2143 27.4535 12.7414L24.9306 11.2278L26.0319 8.47264ZM24.7206 6.5391L22.9371 10.9975L19.0419 12.4752L15.9839 10.1817V5.34297L19.4184 2.76684C21.501 3.54781 23.329 4.85329 24.7206 6.5391ZM15.0161 1.95587C15.7061 1.95587 16.3777 2.02651 17.0377 2.13393L15.0161 3.64942L12.9945 2.13393C13.6545 2.02651 14.3261 1.95587 15.0161 1.95587ZM10.6139 2.76684L14.0484 5.34297V10.1817L10.97 12.4907L7.1871 11.2297L5.31161 6.5391C6.70323 4.85329 8.53129 3.54781 10.6139 2.76684ZM4.00032 8.47361L5.14129 11.3265L2.49065 13.4468C2.64548 11.6565 3.17194 9.97167 4.00032 8.47361ZM2.51387 15.9068L6.21548 12.9455L10.3061 14.3091L11.0794 18.1733L8.72581 21.3107H4.43194C3.40806 19.7168 2.72871 17.882 2.51387 15.9068Z" fill="#EBF1FF"/>
<path d="M5.95903 23.2462V19.2462H-3.43672L3.0758 26.0187L5.95903 23.2462ZM8.55452 23.2462L12.2687 21.7613L11.2632 19.2462H8.55452V23.2462ZM9.60645 25.8775L7.87693 29.4842L17.13 33.9213L13.3206 24.3926L9.60645 25.8775ZM17.9929 26.7465L18.9408 30.6326L20.9418 30.1445L21.7068 28.2322L17.9929 26.7465ZM12.0394 26.7465L8.3255 28.2322L9.0905 30.1445L11.0914 30.6326L12.0394 26.7465ZM10.31 22.4236L7.11024 20.0233L5.76106 21.8218L6.59615 23.9093L10.31 22.4236ZM12.5968 19.3752V15.3752H10.597L9.39702 16.9749L12.5968 19.3752ZM17.4355 19.3752L20.6352 16.9749L19.4352 15.3752H17.4355V19.3752ZM19.7223 22.4236L23.4361 23.9093L24.2712 21.8218L22.922 20.0233L19.7223 22.4236ZM12.2145 13.9772L9.81398 10.7776L7.79826 12.2899L8.29207 14.761L12.2145 13.9772ZM15.0161 11.8752L17.4161 8.67522L15.0157 6.87491L12.6156 8.67562L15.0161 11.8752ZM17.8187 13.9772L21.7412 14.761L22.2351 12.2894L20.2187 10.7772L17.8187 13.9772ZM17.1268 17.4397V21.4397H20.4065L21.0492 18.2236L17.1268 17.4397ZM12.9065 17.4397L8.984 18.2236L9.6267 21.4397H12.9065V17.4397ZM20.4248 25.8775L16.7111 24.3914L12.8985 33.9195L22.1534 29.4847L20.4248 25.8775ZM21.4777 23.2462V19.2462H18.77L17.764 21.7602L21.4777 23.2462ZM24.0732 23.2462L26.9565 26.0187L33.469 19.2462H24.0732V23.2462ZM25.6003 21.3107V25.3107H27.7854L28.9661 23.4721L25.6003 21.3107ZM21.3065 21.3107L18.1067 23.711L19.3067 25.3107H21.3065V21.3107ZM18.9529 18.1733L15.0306 17.3888L14.6798 19.1428L15.7531 20.5736L18.9529 18.1733ZM19.731 14.283L18.3127 10.5428L16.2428 11.3278L15.8086 13.4985L19.731 14.283ZM23.7326 12.7655L25.7906 9.33558L24.1276 8.33781L22.3143 9.02542L23.7326 12.7655ZM27.5697 15.0678L31.5661 15.2366L31.6664 12.8611L29.6277 11.6378L27.5697 15.0678ZM26.0319 8.47264L29.5331 6.53827L25.4509 -0.850495L22.3177 6.98798L26.0319 8.47264ZM27.4535 12.7414L25.3958 16.1714L32.6166 20.5034L31.4124 12.1693L27.4535 12.7414ZM24.9306 11.2278L21.2164 9.74314L19.9522 12.9057L22.8729 14.6579L24.9306 11.2278ZM24.7206 6.5391L28.4345 8.0248L29.3156 5.82218L27.8054 3.99267L24.7206 6.5391ZM22.9371 10.9975L24.3559 14.7374L25.9984 14.1143L26.6509 12.4832L22.9371 10.9975ZM19.0419 12.4752L16.6419 15.6752L18.4028 16.9959L20.4608 16.2151L19.0419 12.4752ZM15.9839 10.1817H11.9839V12.1817L13.5839 13.3817L15.9839 10.1817ZM15.9839 5.34297L13.5837 2.14307L11.9839 3.34308V5.34297H15.9839ZM19.4184 2.76684L20.8229 -0.978479L18.7712 -1.74787L17.0182 -0.433055L19.4184 2.76684ZM17.0377 2.13393L19.437 5.33449L26.9586 -0.304012L17.6803 -1.81412L17.0377 2.13393ZM15.0161 3.64942L12.6169 6.84997L15.0161 8.64856L17.4154 6.84997L15.0161 3.64942ZM12.9945 2.13393L12.3519 -1.81412L3.07366 -0.304013L10.5953 5.33449L12.9945 2.13393ZM10.6139 2.76684L13.014 -0.433055L11.2611 -1.74787L9.20938 -0.978479L10.6139 2.76684ZM14.0484 5.34297H18.0484V3.34308L16.4485 2.14307L14.0484 5.34297ZM14.0484 10.1817L16.4485 13.3816L18.0484 12.1816V10.1817H14.0484ZM10.97 12.4907L9.70509 16.2854L11.6935 16.9482L13.3702 15.6906L10.97 12.4907ZM7.1871 11.2297L3.47298 12.7148L4.16186 14.4377L5.92219 15.0245L7.1871 11.2297ZM5.31161 6.5391L2.22686 3.99267L0.716929 5.82181L1.59749 8.02413L5.31161 6.5391ZM4.00032 8.47361L7.71432 6.98827L4.58191 -0.844074L0.49986 6.53795L4.00032 8.47361ZM5.14129 11.3265L7.63993 14.4501L9.95721 12.5964L8.85528 9.84117L5.14129 11.3265ZM2.49065 13.4468L-1.49448 13.1022L-2.29863 22.4002L4.98929 16.5704L2.49065 13.4468ZM2.51387 15.9068L0.0150902 12.7834L-1.7002 14.1556L-1.46267 16.3394L2.51387 15.9068ZM6.21548 12.9455L7.4804 9.15081L5.41596 8.46267L3.7167 9.82207L6.21548 12.9455ZM10.3061 14.3091L14.2284 13.5243L13.773 11.2483L11.571 10.5144L10.3061 14.3091ZM11.0794 18.1733L14.2791 20.5736L15.3526 19.1426L15.0016 17.3884L11.0794 18.1733ZM8.72581 21.3107V25.3107H10.7256L11.9256 23.711L8.72581 21.3107ZM4.43194 21.3107L1.06649 23.4726L2.24725 25.3107H4.43194V21.3107ZM15.0161 33.0526C25.2295 33.0526 33.5323 24.7498 33.5323 14.5365H25.5323C25.5323 20.3316 20.8112 25.0526 15.0161 25.0526V33.0526ZM33.5323 14.5365C33.5323 4.32318 25.2295 -3.97961 15.0161 -3.97961V4.02039C20.8112 4.02039 25.5323 8.74146 25.5323 14.5365H33.5323ZM15.0161 -3.97961C4.8028 -3.97961 -3.5 4.32318 -3.5 14.5365H4.5C4.5 8.74146 9.22107 4.02039 15.0161 4.02039V-3.97961ZM-3.5 14.5365C-3.5 24.7498 4.8028 33.0526 15.0161 33.0526V25.0526C9.22107 25.0526 4.5 20.3316 4.5 14.5365H-3.5ZM5.95903 27.2462H8.55452V19.2462H5.95903V27.2462ZM4.84033 24.731L5.89226 27.3623L13.3206 24.3926L12.2687 21.7613L4.84033 24.731ZM11.336 22.2707C10.3913 21.8177 9.54857 21.2082 8.84227 20.4737L3.0758 26.0187C4.45401 27.452 6.08096 28.623 7.87693 29.4842L11.336 22.2707ZM17.045 22.8605C16.358 23.028 15.6838 23.1172 15.0161 23.1172V31.1172C16.402 31.1172 17.7155 30.9315 18.9408 30.6326L17.045 22.8605ZM15.0161 23.1172C14.3485 23.1172 13.6742 23.028 12.9873 22.8605L11.0914 30.6326C12.3167 30.9315 13.6303 31.1172 15.0161 31.1172V23.1172ZM15.7532 25.2608L14.0238 20.9379L6.59615 23.9093L8.3255 28.2322L15.7532 25.2608ZM13.5098 24.8239L15.7965 21.7755L9.39702 16.9749L7.11024 20.0233L13.5098 24.8239ZM12.5968 23.3752H17.4355V15.3752H12.5968V23.3752ZM14.2357 21.7755L16.5225 24.8239L22.922 20.0233L20.6352 16.9749L14.2357 21.7755ZM16.0084 20.9379L14.2791 25.2608L21.7068 28.2322L23.4361 23.9093L16.0084 20.9379ZM14.615 17.1768L17.4167 15.0748L12.6156 8.67562L9.81398 10.7776L14.615 17.1768ZM12.6161 15.0752L15.4187 17.1772L20.2187 10.7772L17.4161 8.67522L12.6161 15.0752ZM13.8963 13.1933L13.2043 16.6559L21.0492 18.2236L21.7412 14.761L13.8963 13.1933ZM17.1268 13.4397H12.9065V21.4397H17.1268V13.4397ZM16.8289 16.6559L16.137 13.1933L8.29207 14.761L8.984 18.2236L16.8289 16.6559ZM24.1386 27.3635L25.1915 24.7322L17.764 21.7602L16.7111 24.3914L24.1386 27.3635ZM21.4777 27.2462H24.0732V19.2462H21.4777V27.2462ZM21.19 20.4737C20.4838 21.2081 19.6413 21.8174 18.6963 22.2702L22.1534 29.4847C23.9509 28.6234 25.5782 27.4521 26.9565 26.0187L21.19 20.4737ZM25.6003 17.3107H21.3065V25.3107H25.6003V17.3107ZM24.5062 18.9104L22.1527 15.773L15.7531 20.5736L18.1067 23.711L24.5062 18.9104ZM22.8752 18.9578L23.6533 15.0674L15.8086 13.4985L15.0306 17.3888L22.8752 18.9578ZM21.1492 18.0231L25.1508 16.5057L22.3143 9.02542L18.3127 10.5428L21.1492 18.0231ZM21.6746 16.1955L25.5117 18.4978L29.6277 11.6378L25.7906 9.33558L21.6746 16.1955ZM23.5732 14.899C23.507 16.4683 23.0262 17.9165 22.2346 19.1493L28.9661 23.4721C30.5086 21.07 31.4388 18.2506 31.5661 15.2366L23.5732 14.899ZM22.5308 10.407C23.0095 11.2735 23.3413 12.2523 23.4947 13.3134L31.4124 12.1693C31.1245 10.1762 30.4905 8.27119 29.5331 6.53827L22.5308 10.407ZM29.5113 9.31127L26.9884 7.79772L22.8729 14.6579L25.3958 16.1714L29.5113 9.31127ZM28.6449 12.7125L29.7462 9.95731L22.3177 6.98798L21.2164 9.74314L28.6449 12.7125ZM21.0068 5.05339L19.2232 9.51178L26.6509 12.4832L28.4345 8.0248L21.0068 5.05339ZM21.5183 7.25758L17.6231 8.73532L20.4608 16.2151L24.3559 14.7374L21.5183 7.25758ZM21.4419 9.27522L18.3839 6.98168L13.5839 13.3817L16.6419 15.6752L21.4419 9.27522ZM19.9839 10.1817V5.34297H11.9839V10.1817H19.9839ZM18.384 8.54286L21.8185 5.96673L17.0182 -0.433055L13.5837 2.14307L18.384 8.54286ZM18.0139 6.51215C19.4459 7.04915 20.693 7.94335 21.6359 9.08552L27.8054 3.99267C25.965 1.76322 23.556 0.0464591 20.8229 -0.978479L18.0139 6.51215ZM15.0161 5.95587C15.4341 5.95587 15.8831 5.99864 16.3952 6.08198L17.6803 -1.81412C16.8724 -1.94561 15.9781 -2.04413 15.0161 -2.04413V5.95587ZM14.6385 -1.06662L12.6169 0.448866L17.4154 6.84997L19.437 5.33449L14.6385 -1.06662ZM17.4154 0.448867L15.3938 -1.06662L10.5953 5.33449L12.6169 6.84997L17.4154 0.448867ZM13.6371 6.08198C14.1492 5.99864 14.5981 5.95587 15.0161 5.95587V-2.04413C14.0541 -2.04413 13.1599 -1.94561 12.3519 -1.81412L13.6371 6.08198ZM8.21373 5.96673L11.6482 8.54286L16.4485 2.14307L13.014 -0.433055L8.21373 5.96673ZM10.0484 5.34297V10.1817H18.0484V5.34297H10.0484ZM11.6482 6.9818L8.56984 9.29083L13.3702 15.6906L16.4485 13.3816L11.6482 6.9818ZM12.2349 8.69597L8.45201 7.43501L5.92219 15.0245L9.70509 16.2854L12.2349 8.69597ZM10.9012 9.74471L9.02573 5.05406L1.59749 8.02413L3.47298 12.7148L10.9012 9.74471ZM8.39637 9.08552C9.33921 7.94335 10.5864 7.04915 12.0184 6.51215L9.20938 -0.978479C6.47621 0.0464591 4.06724 1.76322 2.22686 3.99267L8.39637 9.08552ZM0.286329 9.95896L1.4273 12.8119L8.85528 9.84117L7.71432 6.98827L0.286329 9.95896ZM2.64265 8.20293L-0.00799584 10.3232L4.98929 16.5704L7.63993 14.4501L2.64265 8.20293ZM6.47577 13.7915C6.5818 12.5655 6.94077 11.422 7.50078 10.4093L0.49986 6.53795C-0.596897 8.52134 -1.29083 10.7475 -1.49448 13.1022L6.47577 13.7915ZM5.01265 19.0303L8.71426 16.069L3.7167 9.82207L0.0150902 12.7834L5.01265 19.0303ZM4.95057 16.7403L9.04122 18.1038L11.571 10.5144L7.4804 9.15081L4.95057 16.7403ZM6.38388 15.0939L7.15711 18.9581L15.0016 17.3884L14.2284 13.5243L6.38388 15.0939ZM7.87959 15.773L5.52604 18.9104L11.9256 23.711L14.2791 20.5736L7.87959 15.773ZM8.72581 17.3107H4.43194V25.3107H8.72581V17.3107ZM7.79738 19.1488C7.09392 18.0537 6.63541 16.8074 6.49042 15.4743L-1.46267 16.3394C-1.17799 18.9566 -0.277793 21.3799 1.06649 23.4726L7.79738 19.1488Z" fill="#EBF1FF" mask="url(#path-1-inside-1_66_123)"/>
<mask id="path-3-inside-2_66_123" fill="white">
<path d="M56.7955 27.1171C55.8064 27.1171 54.8755 27.5023 54.1758 28.202L51.7903 30.5875V19.3752C51.7903 17.7746 50.4877 16.472 48.8871 16.472C48.5097 16.472 48.1487 16.5446 47.8177 16.6762C47.4819 15.4442 46.3526 14.5365 45.0161 14.5365C43.6797 14.5365 42.5503 15.4442 42.2145 16.6762C41.8835 16.5446 41.5226 16.472 41.1452 16.472C39.8087 16.472 38.6794 17.3797 38.3435 18.6117C38.0126 18.48 37.6516 18.4075 37.2742 18.4075C35.6735 18.4075 34.371 19.71 34.371 21.3107V32.1339C34.0671 32.0255 33.7439 31.9559 33.4032 31.9559H17.9194C16.3187 31.9559 15.0161 33.2584 15.0161 34.8591V35.8268H9.20968C4.40677 35.8268 0.5 39.7336 0.5 44.5365V55.1817C0.5 56.7823 1.80258 58.0849 3.40323 58.0849H4.37097V60.0204H6.30645V58.0849H8.24194V60.0204H10.1774V58.0849H12.1129V60.0204H14.0484V58.0849H37.2742V60.0204H39.2097V58.0849H41.1452V60.0204H43.0806V58.0849H45.0161V60.0204H46.9516V58.0849H47.9194C49.52 58.0849 50.8226 56.7823 50.8226 55.1817V45.9049L52.6816 44.0459L53.6494 39.2071L59.4152 33.4413C60.1148 32.7426 60.5 31.8117 60.5 30.8217C60.5 28.7797 58.8374 27.1171 56.7955 27.1171ZM16.9516 34.8591C16.9516 34.3249 17.3852 33.8913 17.9194 33.8913H33.4032C33.9374 33.8913 34.371 34.3249 34.371 34.8591V35.8268H16.9516V34.8591ZM48.8871 55.1817C48.8871 55.7159 48.4535 56.1494 47.9194 56.1494H3.40323C2.86903 56.1494 2.43548 55.7159 2.43548 55.1817V44.5365C2.43548 40.802 5.47516 37.7623 9.20968 37.7623H15.0161V41.6333H16.9516V37.7623H34.371V41.6333H36.3064V37.7623H42.1129C45.8474 37.7623 48.8871 40.802 48.8871 44.5365V55.1817ZM58.0468 32.073L51.8668 38.253L50.899 43.0917L50.72 43.2707C50.1035 39.0678 46.4852 35.8268 42.1129 35.8268H36.3064V34.8591V21.3107C36.3064 20.7765 36.74 20.343 37.2742 20.343C37.8084 20.343 38.2419 20.7765 38.2419 21.3107V30.0204H40.1774V19.3752C40.1774 18.841 40.611 18.4075 41.1452 18.4075C41.6794 18.4075 42.1129 18.841 42.1129 19.3752V30.0204H44.0484V17.4397C44.0484 16.9055 44.4819 16.472 45.0161 16.472C45.5503 16.472 45.9839 16.9055 45.9839 17.4397V30.0204H47.9194V19.3752C47.9194 18.841 48.3529 18.4075 48.8871 18.4075C49.4213 18.4075 49.8548 18.841 49.8548 19.3752V32.9236H52.191L55.5442 29.5704C55.8732 29.2413 56.329 29.0526 56.7955 29.0526C57.771 29.0526 58.5645 29.8462 58.5645 30.8217C58.5645 31.2881 58.3758 31.7439 58.0468 32.073Z"/>
</mask>
<path d="M56.7955 27.1171C55.8064 27.1171 54.8755 27.5023 54.1758 28.202L51.7903 30.5875V19.3752C51.7903 17.7746 50.4877 16.472 48.8871 16.472C48.5097 16.472 48.1487 16.5446 47.8177 16.6762C47.4819 15.4442 46.3526 14.5365 45.0161 14.5365C43.6797 14.5365 42.5503 15.4442 42.2145 16.6762C41.8835 16.5446 41.5226 16.472 41.1452 16.472C39.8087 16.472 38.6794 17.3797 38.3435 18.6117C38.0126 18.48 37.6516 18.4075 37.2742 18.4075C35.6735 18.4075 34.371 19.71 34.371 21.3107V32.1339C34.0671 32.0255 33.7439 31.9559 33.4032 31.9559H17.9194C16.3187 31.9559 15.0161 33.2584 15.0161 34.8591V35.8268H9.20968C4.40677 35.8268 0.5 39.7336 0.5 44.5365V55.1817C0.5 56.7823 1.80258 58.0849 3.40323 58.0849H4.37097V60.0204H6.30645V58.0849H8.24194V60.0204H10.1774V58.0849H12.1129V60.0204H14.0484V58.0849H37.2742V60.0204H39.2097V58.0849H41.1452V60.0204H43.0806V58.0849H45.0161V60.0204H46.9516V58.0849H47.9194C49.52 58.0849 50.8226 56.7823 50.8226 55.1817V45.9049L52.6816 44.0459L53.6494 39.2071L59.4152 33.4413C60.1148 32.7426 60.5 31.8117 60.5 30.8217C60.5 28.7797 58.8374 27.1171 56.7955 27.1171ZM16.9516 34.8591C16.9516 34.3249 17.3852 33.8913 17.9194 33.8913H33.4032C33.9374 33.8913 34.371 34.3249 34.371 34.8591V35.8268H16.9516V34.8591ZM48.8871 55.1817C48.8871 55.7159 48.4535 56.1494 47.9194 56.1494H3.40323C2.86903 56.1494 2.43548 55.7159 2.43548 55.1817V44.5365C2.43548 40.802 5.47516 37.7623 9.20968 37.7623H15.0161V41.6333H16.9516V37.7623H34.371V41.6333H36.3064V37.7623H42.1129C45.8474 37.7623 48.8871 40.802 48.8871 44.5365V55.1817ZM58.0468 32.073L51.8668 38.253L50.899 43.0917L50.72 43.2707C50.1035 39.0678 46.4852 35.8268 42.1129 35.8268H36.3064V34.8591V21.3107C36.3064 20.7765 36.74 20.343 37.2742 20.343C37.8084 20.343 38.2419 20.7765 38.2419 21.3107V30.0204H40.1774V19.3752C40.1774 18.841 40.611 18.4075 41.1452 18.4075C41.6794 18.4075 42.1129 18.841 42.1129 19.3752V30.0204H44.0484V17.4397C44.0484 16.9055 44.4819 16.472 45.0161 16.472C45.5503 16.472 45.9839 16.9055 45.9839 17.4397V30.0204H47.9194V19.3752C47.9194 18.841 48.3529 18.4075 48.8871 18.4075C49.4213 18.4075 49.8548 18.841 49.8548 19.3752V32.9236H52.191L55.5442 29.5704C55.8732 29.2413 56.329 29.0526 56.7955 29.0526C57.771 29.0526 58.5645 29.8462 58.5645 30.8217C58.5645 31.2881 58.3758 31.7439 58.0468 32.073Z" fill="#EBF1FF" stroke="#EBF1FF" stroke-width="8" mask="url(#path-3-inside-2_66_123)"/>
</svg>
