<?xml version="1.0" standalone="no"?>
<!DOCTYPE svg PUBLIC "-//W3C//DTD SVG 20010904//EN"
 "http://www.w3.org/TR/2001/REC-SVG-20010904/DTD/svg10.dtd">
<svg version="1.0" xmlns="http://www.w3.org/2000/svg"
 width="500.000000pt" height="500.000000pt" viewBox="0 0 500.000000 500.000000"
 preserveAspectRatio="xMidYMid meet">

<g transform="translate(0.000000,500.000000) scale(0.100000,-0.100000)"
fill="#000000" stroke="none">
<path d="M2275 4794 c-963 -105 -1758 -829 -1950 -1776 -91 -455 -33 -957 160
-1374 39 -87 132 -251 145 -259 5 -3 76 6 158 20 181 30 194 31 249 4 61 -30
93 -86 93 -167 0 -48 3 -62 15 -62 24 0 97 -72 116 -115 10 -22 19 -61 19 -86
0 -39 4 -48 26 -60 62 -33 100 -113 85 -180 -7 -33 -5 -38 28 -66 31 -26 46
-56 106 -213 76 -199 103 -240 169 -258 29 -9 46 -8 70 2 79 33 78 73 -2 285
-66 174 -73 205 -45 199 12 -2 44 -68 103 -208 103 -248 101 -243 145 -264 70
-34 156 10 170 88 7 33 -3 59 -90 242 -71 148 -95 208 -87 216 6 6 17 8 24 6
7 -3 68 -109 136 -236 68 -127 131 -237 140 -245 73 -66 182 -21 182 76 0 31
-20 79 -91 215 -82 159 -89 176 -75 190 13 13 18 14 28 4 7 -7 58 -97 113
-199 115 -215 142 -245 222 -246 92 -1 153 56 161 148 2 31 -1 62 -8 76 -7 13
-107 178 -223 367 -162 265 -216 346 -240 358 -20 11 -90 21 -201 30 -268 23
-341 49 -456 164 -78 78 -143 199 -143 266 0 48 25 98 66 128 26 19 46 21 205
26 l177 5 -63 66 c-70 74 -130 111 -217 134 -76 19 -111 19 -330 -1 -202 -19
-233 -15 -303 36 -98 70 -127 191 -119 495 5 209 24 311 87 490 79 222 224
443 401 610 83 78 76 77 -26 -4 -96 -76 -255 -231 -327 -318 -119 -146 -259
-380 -313 -526 -10 -26 -20 -46 -22 -43 -9 9 41 221 82 344 105 316 275 583
521 822 268 259 579 432 934 519 189 46 283 56 510 55 169 0 227 -4 330 -23
433 -80 805 -275 1116 -588 l97 -98 -57 75 c-377 494 -978 818 -1598 860 -180
12 -241 11 -403 -6z"/>
<path d="M2186 3923 c-3 -16 -49 -275 -101 -578 -52 -302 -98 -562 -101 -577
l-6 -28 264 0 c272 0 364 8 433 39 39 17 41 20 37 58 -6 59 24 161 63 218 19
28 57 67 84 88 54 42 54 43 17 116 -17 31 -80 91 -98 91 -6 0 15 17 48 39 74
48 97 73 125 136 53 117 17 270 -79 340 -91 66 -202 84 -504 85 l-176 0 -6
-27z m461 -189 c76 -11 106 -107 60 -195 -38 -70 -93 -93 -239 -98 -111 -3
-118 -2 -118 16 0 18 34 220 45 270 5 21 8 22 113 17 59 -3 121 -7 139 -10z
m-34 -486 c15 -6 34 -23 42 -39 19 -35 19 -110 1 -152 -17 -43 -76 -93 -123
-106 -44 -13 -273 -15 -273 -3 0 13 50 296 55 310 4 11 32 12 137 7 73 -4 146
-11 161 -17z"/>
</g>
</svg>
