<?xml version="1.0" standalone="no"?>
<!DOCTYPE svg PUBLIC "-//W3C//DTD SVG 20010904//EN"
 "http://www.w3.org/TR/2001/REC-SVG-20010904/DTD/svg10.dtd">
<svg version="1.0" xmlns="http://www.w3.org/2000/svg"
 width="256.000000pt" height="256.000000pt" viewBox="0 0 256.000000 256.000000"
 preserveAspectRatio="xMidYMid meet">

<g transform="translate(0.000000,256.000000) scale(0.100000,-0.100000)"
fill="#000000" stroke="none">
<path d="M1003 2509 c-10 -10 -13 -67 -13 -215 0 -171 2 -205 16 -218 12 -13
39 -16 122 -16 170 -1 363 -17 413 -35 195 -68 240 -320 81 -442 -80 -61 -150
-76 -392 -82 l-215 -6 -3 -223 -2 -222 252 0 c268 0 352 -8 430 -42 53 -23
122 -91 144 -143 22 -54 18 -138 -11 -194 -30 -60 -106 -128 -151 -137 -18 -3
-38 -12 -44 -19 -7 -8 -9 -92 -8 -241 l3 -229 130 1 c104 0 144 5 200 22 199
61 388 240 446 421 29 91 36 260 15 361 -38 179 -168 342 -336 418 -110 50
-115 73 -31 138 160 124 261 316 261 496 0 157 -47 265 -165 384 -100 101
-213 160 -380 200 -104 25 -126 27 -430 31 -251 4 -323 2 -332 -8z"/>
<path d="M635 2334 c-180 -121 -360 -323 -463 -521 l-42 -81 0 -601 0 -601 36
-73 c54 -106 144 -233 236 -331 l80 -87 390 3 390 3 19 24 c17 21 19 41 19
236 l0 212 -292 5 c-282 4 -292 5 -308 26 -17 20 -17 74 -13 819 2 439 0 842
-4 896 l-8 97 -40 -26z"/>
</g>
</svg>
