<svg width="28" height="33" viewBox="0 0 28 33" fill="none" xmlns="http://www.w3.org/2000/svg">
<path d="M22.24 5.93521C21.0248 4.54787 20.3551 2.7662 20.3556 0.921875H14.8622V22.9663C14.8199 24.1593 14.3162 25.2892 13.4574 26.1182C12.5985 26.9472 11.4515 27.4106 10.2578 27.4108C7.73334 27.4108 5.63556 25.3485 5.63556 22.7885C5.63556 19.7308 8.58667 17.4374 11.6267 18.3797V12.7619C5.49334 11.9441 0.124451 16.7085 0.124451 22.7885C0.124451 28.7085 5.03112 32.9219 10.24 32.9219C15.8222 32.9219 20.3556 28.3885 20.3556 22.7885V11.6063C22.5831 13.2061 25.2575 14.0644 28 14.0597V8.56632C28 8.56632 24.6578 8.72632 22.24 5.93521Z" fill="#ECEDEF"/>
</svg>
