<svg width="61" height="58" viewBox="0 0 61 58" fill="none" xmlns="http://www.w3.org/2000/svg">
<path d="M59.6076 55.5119H55.3684V52.6341C55.3684 52.4704 55.235 52.3365 55.0707 52.3365C54.9064 52.3365 54.7731 52.4704 54.7731 52.6341V55.5119H49.4152V52.6341C49.4152 52.4704 49.2819 52.3365 49.1176 52.3365C48.9533 52.3365 48.8199 52.4704 48.8199 52.6341V55.5119H43.4621V52.6341C43.4621 52.4704 43.3287 52.3365 43.1644 52.3365C43.0001 52.3365 42.8668 52.4704 42.8668 52.6341V55.5119H37.5089V52.6341C37.5089 52.4704 37.3756 52.3365 37.2113 52.3365C37.047 52.3365 36.9136 52.4704 36.9136 52.6341V55.5119H31.5558V52.6341C31.5558 52.4704 31.4224 52.3365 31.2581 52.3365C31.0938 52.3365 30.9605 52.4704 30.9605 52.6341V55.5119H25.6026V52.6341C25.6026 52.4704 25.4693 52.3365 25.305 52.3365C25.1407 52.3365 25.0073 52.4704 25.0073 52.6341V55.5119H19.6495V52.6341C19.6495 52.4704 19.5161 52.3365 19.3518 52.3365C19.1875 52.3365 19.0542 52.4704 19.0542 52.6341V55.5119H13.6963V52.6341C13.6963 52.4704 13.563 52.3365 13.3987 52.3365C13.2344 52.3365 13.101 52.4704 13.101 52.6341V55.5119H2.28594V48.7652H4.67673C4.84104 48.7652 4.97439 48.6318 4.97439 48.4675C4.97439 48.3032 4.84104 48.1699 4.67673 48.1699H2.28594V42.812H4.67673C4.84104 42.812 4.97439 42.6787 4.97439 42.5144C4.97439 42.3501 4.84104 42.2167 4.67673 42.2167H2.28594V36.8589H4.67673C4.84104 36.8589 4.97439 36.7255 4.97439 36.5612C4.97439 36.3969 4.84104 36.2636 4.67673 36.2636H2.28594V30.9057H4.67673C4.84104 30.9057 4.97439 30.7724 4.97439 30.6081C4.97439 30.4438 4.84104 30.3104 4.67673 30.3104H2.28594V24.9526H4.67673C4.84104 24.9526 4.97439 24.8192 4.97439 24.6549C4.97439 24.4906 4.84104 24.3573 4.67673 24.3573H2.28594V18.9994H4.67673C4.84104 18.9994 4.97439 18.8661 4.97439 18.7018C4.97439 18.5375 4.84104 18.4041 4.67673 18.4041H2.28594V13.0463H4.67673C4.84104 13.0463 4.97439 12.9129 4.97439 12.7486C4.97439 12.5843 4.84104 12.451 4.67673 12.451H2.28594V7.09314H4.67673C4.84104 7.09314 4.97439 6.95979 4.97439 6.79549C4.97439 6.63118 4.84104 6.49783 4.67673 6.49783H2.28594V1.63589C2.28594 1.14238 1.88589 0.74292 1.39297 0.74292C0.900052 0.74292 0.5 1.14178 0.5 1.63589V56.4049C0.5 56.8978 0.900052 57.2978 1.39297 57.2978H59.607C60.0999 57.2978 60.5 56.8978 60.5 56.4049C60.5 55.9119 60.1005 55.5119 59.6076 55.5119Z" fill="#EBF1FF"/>
<path d="M16.5104 49.7945H9.21777V8.24567H16.5104V49.7945ZM10.4084 48.6038H15.3198V21.3426H10.4084V48.6038Z" fill="#EBF1FF"/>
<path d="M29.4585 49.7945H22.1659V23.8983H29.4585V49.7945ZM23.3565 48.6039H28.2679V36.9952H23.3565V48.6039Z" fill="#EBF1FF"/>
<path d="M42.2583 49.7945H34.9657V15.415H42.2583V49.7945ZM36.1563 48.6038H41.0677V27.9167H36.1563V48.6038Z" fill="#EBF1FF"/>
<path d="M55.653 49.7945H48.3604V19.4334H55.653V49.7945ZM49.551 48.6038H54.4623V44.4366H49.551V48.6038Z" fill="#EBF1FF"/>
</svg>
