<svg width="47" height="33" viewBox="0 0 47 33" fill="none" xmlns="http://www.w3.org/2000/svg">
<path d="M18.8673 23.6362L30.656 16.8219L18.8673 10.0076V23.6362ZM45.125 5.85088C45.4203 6.91845 45.6247 8.34945 45.761 10.1666C45.92 11.9837 45.9882 13.551 45.9882 14.9139L46.1244 16.8219C46.1244 21.7963 45.761 25.4533 45.125 27.7929C44.5572 29.8372 43.2397 31.1546 41.1954 31.7224C40.1279 32.0177 38.1744 32.2222 35.1762 32.3584C32.2233 32.5174 29.5203 32.5856 27.0217 32.5856L23.4102 32.7219C13.8929 32.7219 7.96444 32.3584 5.62487 31.7224C3.58058 31.1546 2.26316 29.8372 1.6953 27.7929C1.40001 26.7253 1.19558 25.2943 1.0593 23.4772C0.900298 21.66 0.832155 20.0927 0.832155 18.7299L0.695869 16.8219C0.695869 11.8474 1.0593 8.19045 1.6953 5.85088C2.26316 3.80659 3.58058 2.48916 5.62487 1.9213C6.69244 1.62602 8.64587 1.42159 11.6442 1.2853C14.597 1.1263 17.3 1.05816 19.7986 1.05816L23.4102 0.921875C32.9274 0.921875 38.8559 1.2853 41.1954 1.9213C43.2397 2.48916 44.5572 3.80659 45.125 5.85088Z" fill="#ECEDEF"/>
</svg>
